<svg width="16" height="16" viewBox="0 0 16 16" fill="none" xmlns="http://www.w3.org/2000/svg">
<g id="ri:presentation-fill">
<path id="Vector" d="M5.33333 2.66666C5.33333 3.02028 5.19286 3.35942 4.94281 3.60947C4.69276 3.85952 4.35362 3.99999 4 3.99999C3.64638 3.99999 3.30724 3.85952 3.05719 3.60947C2.80714 3.35942 2.66667 3.02028 2.66667 2.66666C2.66667 2.31304 2.80714 1.9739 3.05719 1.72385C3.30724 1.4738 3.64638 1.33333 4 1.33333C4.35362 1.33333 4.69276 1.4738 4.94281 1.72385C5.19286 1.9739 5.33333 2.31304 5.33333 2.66666ZM3.33333 10.6667V14.6667H2V6.66666C1.99994 6.2723 2.11647 5.88672 2.33493 5.5584C2.5534 5.23008 2.86406 4.97367 3.22785 4.82142C3.59163 4.66916 3.99231 4.62785 4.37951 4.70269C4.76671 4.77752 5.12314 4.96515 5.404 5.24199L6.98667 6.73733L8.52867 5.19533L9.47133 6.13799L7.01333 8.59599L6 7.63999V14.6667H4.66667V10.6667H3.33333ZM6.66667 3.33333H12.6667V9.33333H6.66667V10.6667H9.57667L11.4593 14.6667H12.9327L11.0507 10.6667H13.3333C13.5101 10.6667 13.6797 10.5964 13.8047 10.4714C13.9298 10.3464 14 10.1768 14 9.99999V2.66666C14 2.48985 13.9298 2.32028 13.8047 2.19526C13.6797 2.07023 13.5101 1.99999 13.3333 1.99999H6.66667V3.33333Z" fill="white"/>
</g>
</svg>
