<svg width="16" height="16" viewBox="0 0 16 16" fill="none" xmlns="http://www.w3.org/2000/svg">
<g id="clarity:employee-group-solid">
<path id="Vector" d="M8.00002 7.10222C9.16841 7.10222 10.1156 6.167 10.1156 5.01333C10.1156 3.85967 9.16841 2.92445 8.00002 2.92445C6.83163 2.92445 5.88446 3.85967 5.88446 5.01333C5.88446 6.167 6.83163 7.10222 8.00002 7.10222Z" fill="white"/>
<path id="Vector_2" d="M4.79109 5.22222H5.00442V5.03111C5.00571 4.47537 5.1625 3.93109 5.45704 3.45983C5.75158 2.98857 6.17212 2.60913 6.67108 2.36444C6.52337 2.02425 6.28627 1.73041 5.98497 1.51415C5.68367 1.29788 5.32942 1.16726 4.95984 1.13616C4.59027 1.10505 4.21917 1.17463 3.88596 1.33749C3.55275 1.50036 3.26988 1.75043 3.06738 2.06115C2.86488 2.37188 2.75032 2.73164 2.73587 3.10224C2.72142 3.47284 2.80761 3.84044 2.98529 4.16598C3.16298 4.49153 3.42552 4.76287 3.74503 4.95119C4.06455 5.13951 4.4291 5.23778 4.79997 5.23555L4.79109 5.22222ZM11.0044 5.01333V5.20444H11.2178C11.5837 5.20077 11.9419 5.09851 12.2546 4.90844C12.5673 4.71836 12.823 4.4475 12.9948 4.12435C13.1665 3.80121 13.248 3.43774 13.2306 3.0722C13.2132 2.70666 13.0976 2.35257 12.8959 2.0472C12.6942 1.74183 12.4139 1.49648 12.0846 1.33697C11.7552 1.17746 11.3889 1.10969 11.0243 1.1408C10.6597 1.1719 10.3102 1.30073 10.0126 1.51372C9.71501 1.72672 9.48035 2.01599 9.33331 2.35111C9.83243 2.59484 10.2534 2.97331 10.5487 3.44376C10.844 3.91421 11.0019 4.45788 11.0044 5.01333ZM9.90664 7.31111C10.7903 7.48602 11.6447 7.78529 12.4444 8.2C12.5571 8.26189 12.6591 8.34141 12.7466 8.43555H15.1111V6.91555C15.1115 6.85725 15.096 6.79994 15.0662 6.74981C15.0365 6.69968 14.9936 6.65864 14.9422 6.63111C13.7903 6.02858 12.5088 5.71586 11.2089 5.72H10.9155C10.7615 6.34609 10.4073 6.90477 9.90664 7.31111ZM2.9022 9.29778C2.90138 9.07394 2.96183 8.85415 3.077 8.66221C3.19216 8.47027 3.35765 8.3135 3.55553 8.20889C4.35521 7.79418 5.20963 7.49491 6.09331 7.32C5.59512 6.91712 5.24109 6.36347 5.08442 5.74222H4.79109C3.4911 5.73808 2.20969 6.05081 1.05775 6.65333C1.00636 6.68086 0.963466 6.72191 0.933701 6.77204C0.903937 6.82217 0.888433 6.87948 0.888864 6.93777V9.77778H2.9022V9.29778ZM9.53775 11.8622H12.1866V12.4844H9.53775V11.8622Z" fill="white"/>
<path id="Vector_3" d="M14.5822 9.44889H11.5289V9.00444C11.5289 8.88657 11.482 8.77352 11.3987 8.69017C11.3153 8.60682 11.2023 8.56 11.0844 8.56C10.9665 8.56 10.8535 8.60682 10.7701 8.69017C10.6868 8.77352 10.64 8.88657 10.64 9.00444V9.44889H9.77775V8.19111C9.19301 8.06832 8.59745 8.0043 7.99997 8C6.5972 7.99416 5.21447 8.33297 3.97331 8.98666C3.91802 9.01534 3.87175 9.05875 3.83959 9.11209C3.80743 9.16542 3.79064 9.22661 3.79109 9.28889V11.7822H6.95109V14.4889C6.95109 14.6068 6.99791 14.7198 7.08126 14.8032C7.16461 14.8865 7.27765 14.9333 7.39553 14.9333H14.5822C14.7001 14.9333 14.8131 14.8865 14.8965 14.8032C14.9798 14.7198 15.0266 14.6068 15.0266 14.4889V9.89333C15.0266 9.77546 14.9798 9.66241 14.8965 9.57906C14.8131 9.49571 14.7001 9.44889 14.5822 9.44889ZM14.1377 14.0533H7.83997V10.3378H10.64V10.7422C10.64 10.8601 10.6868 10.9731 10.7701 11.0565C10.8535 11.1398 10.9665 11.1867 11.0844 11.1867C11.2023 11.1867 11.3153 11.1398 11.3987 11.0565C11.482 10.9731 11.5289 10.8601 11.5289 10.7422V10.3378H14.1377V14.0533Z" fill="white"/>
</g>
</svg>
