<svg width="15" height="15" viewBox="0 0 15 15" fill="none" xmlns="http://www.w3.org/2000/svg">
<g id="clarity:date-solid-alerted" clip-path="url(#clip0_2_1009)">
<path id="Vector" d="M14.0334 6.41667H9.26253C8.99246 6.41941 8.72647 6.35078 8.49145 6.2177C8.25643 6.08463 8.06073 5.89185 7.92415 5.65885C7.78756 5.42586 7.71494 5.16092 7.71364 4.89085C7.71233 4.62077 7.78238 4.35514 7.91669 4.12084L8.87086 2.5H5.08336V3.75C5.08336 3.99312 4.98678 4.22628 4.81487 4.39818C4.64297 4.57009 4.40981 4.66667 4.16669 4.66667C3.92358 4.66667 3.69042 4.57009 3.51851 4.39818C3.3466 4.22628 3.25003 3.99312 3.25003 3.75V2.5H1.58336C1.4842 2.49887 1.38583 2.51764 1.29405 2.55519C1.20227 2.59275 1.11896 2.64833 1.04903 2.71864C0.979107 2.78895 0.923992 2.87257 0.886948 2.96456C0.849904 3.05654 0.831681 3.15502 0.833359 3.25417V12.5792C0.831704 12.6766 0.849252 12.7733 0.885003 12.864C0.920754 12.9546 0.974006 13.0373 1.04172 13.1073C1.10943 13.1773 1.19028 13.2333 1.27964 13.2721C1.369 13.3109 1.46512 13.3317 1.56253 13.3333H13.4375C13.5349 13.3317 13.6311 13.3109 13.7204 13.2721C13.8098 13.2333 13.8906 13.1773 13.9583 13.1073C14.026 13.0373 14.0793 12.9546 14.1151 12.864C14.1508 12.7733 14.1684 12.6766 14.1667 12.5792V6.40834L14.0334 6.41667ZM4.16669 10.8333H3.33336V10H4.16669V10.8333ZM4.16669 8.75H3.33336V7.91667H4.16669V8.75ZM4.16669 6.66667H3.33336V5.83334H4.16669V6.66667ZM6.66669 10.8333H5.83336V10H6.66669V10.8333ZM6.66669 8.75H5.83336V7.91667H6.66669V8.75ZM6.66669 6.66667H5.83336V5.83334H6.66669V6.66667ZM9.16669 10.8333H8.33336V10H9.16669V10.8333ZM9.16669 8.75H8.33336V7.91667H9.16669V8.75ZM11.6667 10.8333H10.8334V10H11.6667V10.8333ZM11.6667 8.75H10.8334V7.91667H11.6667V8.75Z" fill="white"/>
<path id="Vector_2" d="M4.16667 4.16666C4.27717 4.16666 4.38315 4.12276 4.46129 4.04462C4.53943 3.96648 4.58333 3.8605 4.58333 3.74999V1.24999C4.58333 1.13949 4.53943 1.03351 4.46129 0.955367C4.38315 0.877227 4.27717 0.833328 4.16667 0.833328C4.05616 0.833328 3.95018 0.877227 3.87204 0.955367C3.7939 1.03351 3.75 1.13949 3.75 1.24999V3.74999C3.75 3.8605 3.7939 3.96648 3.87204 4.04462C3.95018 4.12276 4.05616 4.16666 4.16667 4.16666Z" fill="white"/>
<path id="Vector_3" d="M11.1875 0.474994L8.80418 4.58333C8.74873 4.66471 8.7169 4.75986 8.71221 4.85823C8.70753 4.9566 8.73017 5.05435 8.77763 5.14064C8.82509 5.22693 8.89551 5.29839 8.9811 5.34711C9.06668 5.39583 9.16409 5.4199 9.26251 5.41666H14.0333C14.1318 5.4199 14.2292 5.39583 14.3148 5.34711C14.4004 5.29839 14.4708 5.22693 14.5182 5.14064C14.5657 5.05435 14.5883 4.9566 14.5836 4.85823C14.579 4.75986 14.5471 4.66471 14.4917 4.58333L12.1083 0.474994C12.0613 0.3946 11.9941 0.327915 11.9133 0.281572C11.8326 0.23523 11.7411 0.210846 11.6479 0.210846C11.5548 0.210846 11.4633 0.23523 11.3825 0.281572C11.3018 0.327915 11.2345 0.3946 11.1875 0.474994Z" fill="white"/>
</g>
<defs>
<clipPath id="clip0_2_1009">
<rect width="15" height="15" fill="white"/>
</clipPath>
</defs>
</svg>
