<svg width="15" height="15" viewBox="0 0 15 15" fill="none" xmlns="http://www.w3.org/2000/svg">
<g id="oui:training" clip-path="url(#clip0_2_1034)">
<path id="Vector" d="M9.73687 9.22125C9.49353 8.83598 9.36778 8.38812 9.37501 7.93249C9.38224 7.47686 9.52213 7.03322 9.77757 6.65586C10.033 6.2785 10.3929 5.98379 10.8132 5.80779C11.2336 5.63179 11.6961 5.58214 12.1442 5.66491C12.5923 5.74768 13.0066 5.95928 13.3363 6.27383C13.666 6.58837 13.8969 6.99221 14.0006 7.43592C14.1044 7.87963 14.0766 8.34397 13.9206 8.77212C13.7645 9.20026 13.4871 9.57364 13.1222 9.84656C14.2612 10.4747 15 11.6812 15 13.125V14.5312C15 14.6556 14.9506 14.7748 14.8627 14.8627C14.7748 14.9506 14.6556 15 14.5312 15C14.4069 15 14.2877 14.9506 14.1998 14.8627C14.1119 14.7748 14.0625 14.6556 14.0625 14.5312V13.125C14.0625 11.5087 12.8663 10.3125 11.25 10.3125C10.3969 10.3125 10.0331 10.2937 9.55781 10.1981C8.38594 9.96 7.37063 9.26062 6.19688 7.7925C6.15497 7.7449 6.12315 7.68929 6.10336 7.62904C6.08356 7.56879 6.0762 7.50515 6.08172 7.44198C6.08723 7.3788 6.10551 7.3174 6.13544 7.26149C6.16538 7.20558 6.20634 7.15632 6.25587 7.11671C6.30539 7.07709 6.36243 7.04793 6.42355 7.031C6.48466 7.01407 6.54858 7.00972 6.61143 7.01821C6.67428 7.02669 6.73475 7.04785 6.78918 7.08038C6.84362 7.11292 6.89089 7.15617 6.92812 7.2075C7.77187 8.26125 8.47781 8.83875 9.21 9.12281C9.35531 9.17156 9.53344 9.20063 9.73687 9.22125ZM11.4103 9.34125C11.4881 9.35063 11.5669 9.36094 11.6456 9.37313L11.7188 9.375C12.0782 9.3742 12.4237 9.23577 12.6843 8.98815C12.9449 8.74053 13.1008 8.40252 13.1199 8.04356C13.139 7.6846 13.0199 7.33194 12.7871 7.05804C12.5543 6.78413 12.2255 6.60978 11.8681 6.5708C11.5108 6.53181 11.1521 6.63116 10.8657 6.84842C10.5793 7.06569 10.387 7.38438 10.3283 7.73902C10.2695 8.09366 10.3489 8.45733 10.5499 8.75531C10.751 9.05329 11.0595 9.26296 11.4103 9.34125ZM9.16875 11.2219C9.29307 11.2219 9.4123 11.2713 9.50021 11.3592C9.58811 11.4471 9.6375 11.5663 9.6375 11.6906C9.63056 11.7644 9.61482 11.8371 9.59062 11.9072C9.42281 12.2634 9.375 12.6328 9.375 13.1278V14.5341C9.375 14.6584 9.32561 14.7776 9.23771 14.8655C9.1498 14.9534 9.03057 15.0028 8.90625 15.0028C8.78193 15.0028 8.6627 14.9534 8.57479 14.8655C8.48689 14.7776 8.4375 14.6584 8.4375 14.5341V13.1278C8.4375 12.5119 8.505 12.0159 8.72531 11.5378C8.75713 11.4455 8.81696 11.3655 8.89646 11.3089C8.97595 11.2522 9.07114 11.2218 9.16875 11.2219ZM5.58563 5.41125C5.65877 5.50862 5.69115 5.63064 5.67591 5.75147C5.66067 5.87229 5.599 5.98245 5.50396 6.0586C5.40892 6.13475 5.28797 6.17093 5.16673 6.15947C5.04548 6.148 4.93346 6.0898 4.85437 5.99719L2.91562 3.57375C2.87372 3.52615 2.8419 3.47055 2.82211 3.41029C2.80231 3.35004 2.79495 3.2864 2.80047 3.22323C2.80598 3.16005 2.82426 3.09865 2.85419 3.04274C2.88413 2.98683 2.92509 2.93757 2.97461 2.89796C3.02414 2.85834 3.08118 2.82918 3.1423 2.81225C3.20341 2.79532 3.26733 2.79097 3.33018 2.79946C3.39303 2.80794 3.4535 2.8291 3.50793 2.86163C3.56237 2.89417 3.60964 2.93742 3.64688 2.98875L5.58563 5.41125ZM0.9375 10.3125H6.09375C6.21807 10.3125 6.3373 10.3619 6.42521 10.4498C6.51311 10.5377 6.5625 10.6569 6.5625 10.7812C6.5625 10.9056 6.51311 11.0248 6.42521 11.1127C6.3373 11.2006 6.21807 11.25 6.09375 11.25H0.46875C0.34443 11.25 0.225201 11.2006 0.137294 11.1127C0.049386 11.0248 0 10.9056 0 10.7812V0.46875C0 0.34443 0.049386 0.225201 0.137294 0.137294C0.225201 0.049386 0.34443 0 0.46875 0L11.7188 0C11.8431 0 11.9623 0.049386 12.0502 0.137294C12.1381 0.225201 12.1875 0.34443 12.1875 0.46875V3.28125C12.1875 3.40557 12.1381 3.5248 12.0502 3.61271C11.9623 3.70061 11.8431 3.75 11.7188 3.75C11.5944 3.75 11.4752 3.70061 11.3873 3.61271C11.2994 3.5248 11.25 3.40557 11.25 3.28125V0.9375H0.9375V10.3125Z" fill="white"/>
</g>
<defs>
<clipPath id="clip0_2_1034">
<rect width="15" height="15" fill="white"/>
</clipPath>
</defs>
</svg>
