<svg width="17" height="17" viewBox="0 0 17 17" fill="none" xmlns="http://www.w3.org/2000/svg">
<g id="mdi:user-add">
<path id="Vector" d="M10.6249 9.91658C8.73367 9.91658 4.95825 10.8587 4.95825 12.7499V14.1666H16.2916V12.7499C16.2916 10.8587 12.5162 9.91658 10.6249 9.91658ZM4.24992 7.08325V4.95825H2.83325V7.08325H0.708252V8.49992H2.83325V10.6249H4.24992V8.49992H6.37492V7.08325M10.6249 8.49992C11.3764 8.49992 12.097 8.20141 12.6284 7.67005C13.1597 7.1387 13.4583 6.41803 13.4583 5.66659C13.4583 4.91514 13.1597 4.19447 12.6284 3.66312C12.097 3.13176 11.3764 2.83325 10.6249 2.83325C9.87347 2.83325 9.1528 3.13176 8.62145 3.66312C8.0901 4.19447 7.79158 4.91514 7.79158 5.66659C7.79158 6.41803 8.0901 7.1387 8.62145 7.67005C9.1528 8.20141 9.87347 8.49992 10.6249 8.49992Z" fill="white"/>
</g>
</svg>
