<svg width="17" height="18" viewBox="0 0 17 18" fill="none" xmlns="http://www.w3.org/2000/svg">
<g id="icon-park-outline:termination-file">
<g id="Group">
<path id="Vector" d="M14.1663 6.25496V2.54716C14.1663 2.35801 14.0917 2.17661 13.9589 2.04287C13.826 1.90912 13.6459 1.83398 13.458 1.83398H3.54134C3.35348 1.83398 3.17331 1.90912 3.04047 2.04287C2.90764 2.17661 2.83301 2.35801 2.83301 2.54716V15.3843C2.83301 15.5735 2.90764 15.7549 3.04047 15.8886C3.17331 16.0224 3.35348 16.0975 3.54134 16.0975H7.08301" stroke="white" stroke-linecap="round" stroke-linejoin="round"/>
<path id="Vector_2" d="M5.66602 5.39941H10.2702M5.66602 7.89553H7.43685" stroke="white" stroke-linecap="round"/>
<path id="Vector_3" d="M12.0417 16.0976C10.0856 16.0976 8.5 14.5011 8.5 12.5317C8.5 10.5623 10.0856 8.96582 12.0417 8.96582C13.9977 8.96582 15.5833 10.5623 15.5833 12.5317C15.5833 14.5011 13.9977 16.0976 12.0417 16.0976Z" stroke="white" stroke-linecap="round" stroke-linejoin="round"/>
<path id="Vector_4" d="M9.5625 10.0352L14.5208 15.0274" stroke="white" stroke-linecap="round"/>
<path id="Vector_5" d="M8.5 12.5317C8.5 10.5623 10.0856 8.96582 12.0417 8.96582M12.0417 16.0976C13.9977 16.0976 15.5833 14.5011 15.5833 12.5317" stroke="white" stroke-linecap="round" stroke-linejoin="round"/>
</g>
</g>
</svg>
