<svg xmlns="http://www.w3.org/2000/svg" width="37" height="36" viewBox="0 0 37 36" fill="none">
  <g clip-path="url(#clip0_2511_7106)">
    <path d="M3.51694 13.5599L5.01694 12.6799V15.9999H31.0169V12.7099L32.4969 13.5599C32.7255 13.6795 32.9914 13.7061 33.2391 13.6342C33.4868 13.5624 33.6972 13.3976 33.8262 13.1743C33.9553 12.951 33.9931 12.6864 33.9318 12.4359C33.8704 12.1854 33.7146 11.9683 33.4969 11.8299L18.0169 2.91992L2.51694 11.8299C2.39744 11.8924 2.29181 11.9785 2.20642 12.0829C2.12104 12.1873 2.05764 12.3079 2.02007 12.4374C1.98249 12.5669 1.9715 12.7027 1.98777 12.8366C2.00403 12.9705 2.04721 13.0997 2.1147 13.2165C2.18219 13.3332 2.27261 13.4351 2.38051 13.516C2.48841 13.597 2.61156 13.6552 2.74256 13.6873C2.87355 13.7194 3.00969 13.7246 3.14277 13.7027C3.27585 13.6809 3.40313 13.6323 3.51694 13.5599ZM17.8669 7.10992C17.9886 7.03971 18.1265 7.00274 18.2669 7.00274C18.4074 7.00274 18.5453 7.03971 18.6669 7.10992L25.3869 10.9999H22.1669L18.2669 8.75992L14.3669 10.9999H11.1569L17.8669 7.10992Z" fill="#699BF7"/>
    <path d="M32.8676 26.9999H32.0176V26.1499C32.0176 25.8449 31.8964 25.5524 31.6808 25.3367C31.4651 25.121 31.1726 24.9999 30.8676 24.9999H28.0176V17.6299H24.0176V24.9999H20.0176V17.6299H16.0176V24.9999H12.0176V17.6299H8.01758V24.9999H5.16758C4.86258 24.9999 4.57007 25.121 4.35441 25.3367C4.13874 25.5524 4.01758 25.8449 4.01758 26.1499V26.9999H3.16758C2.86258 26.9999 2.57007 27.121 2.35441 27.3367C2.13874 27.5524 2.01758 27.8449 2.01758 28.1499V30.9999H34.0176V28.1499C34.0176 27.8449 33.8964 27.5524 33.6808 27.3367C33.4651 27.121 33.1726 26.9999 32.8676 26.9999Z" fill="#699BF7"/>
  </g>
  <defs>
    <clipPath id="clip0_2511_7106">
      <rect width="36" height="36" fill="white" transform="translate(0.0175781)"/>
    </clipPath>
  </defs>
</svg>