<svg xmlns="http://www.w3.org/2000/svg" width="37" height="36" viewBox="0 0 37 36" fill="none">
  <path fill-rule="evenodd" clip-rule="evenodd" d="M6.76758 3.375C6.46921 3.375 6.18306 3.49353 5.97208 3.7045C5.7611 3.91548 5.64258 4.20163 5.64258 4.5C5.64258 4.79837 5.7611 5.08452 5.97208 5.2955C6.18306 5.50647 6.46921 5.625 6.76758 5.625V30.375H5.64258C5.34421 30.375 5.05806 30.4935 4.84708 30.7045C4.6361 30.9155 4.51758 31.2016 4.51758 31.5C4.51758 31.7984 4.6361 32.0845 4.84708 32.2955C5.05806 32.5065 5.34421 32.625 5.64258 32.625H30.3926C30.6909 32.625 30.9771 32.5065 31.1881 32.2955C31.3991 32.0845 31.5176 31.7984 31.5176 31.5C31.5176 31.2016 31.3991 30.9155 31.1881 30.7045C30.9771 30.4935 30.6909 30.375 30.3926 30.375H29.2676V5.625C29.5659 5.625 29.8521 5.50647 30.0631 5.2955C30.2741 5.08452 30.3926 4.79837 30.3926 4.5C30.3926 4.20163 30.2741 3.91548 30.0631 3.7045C29.8521 3.49353 29.5659 3.375 29.2676 3.375H6.76758ZM13.5176 9C13.2192 9 12.9331 9.11853 12.7221 9.3295C12.5111 9.54048 12.3926 9.82663 12.3926 10.125C12.3926 10.4234 12.5111 10.7095 12.7221 10.9205C12.9331 11.1315 13.2192 11.25 13.5176 11.25H15.7676C16.0659 11.25 16.3521 11.1315 16.5631 10.9205C16.7741 10.7095 16.8926 10.4234 16.8926 10.125C16.8926 9.82663 16.7741 9.54048 16.5631 9.3295C16.3521 9.11853 16.0659 9 15.7676 9H13.5176ZM12.3926 14.625C12.3926 14.3266 12.5111 14.0405 12.7221 13.8295C12.9331 13.6185 13.2192 13.5 13.5176 13.5H15.7676C16.0659 13.5 16.3521 13.6185 16.5631 13.8295C16.7741 14.0405 16.8926 14.3266 16.8926 14.625C16.8926 14.9234 16.7741 15.2095 16.5631 15.4205C16.3521 15.6315 16.0659 15.75 15.7676 15.75H13.5176C13.2192 15.75 12.9331 15.6315 12.7221 15.4205C12.5111 15.2095 12.3926 14.9234 12.3926 14.625ZM13.5176 18C13.2192 18 12.9331 18.1185 12.7221 18.3295C12.5111 18.5405 12.3926 18.8266 12.3926 19.125C12.3926 19.4234 12.5111 19.7095 12.7221 19.9205C12.9331 20.1315 13.2192 20.25 13.5176 20.25H15.7676C16.0659 20.25 16.3521 20.1315 16.5631 19.9205C16.7741 19.7095 16.8926 19.4234 16.8926 19.125C16.8926 18.8266 16.7741 18.5405 16.5631 18.3295C16.3521 18.1185 16.0659 18 15.7676 18H13.5176ZM19.1426 10.125C19.1426 9.82663 19.2611 9.54048 19.4721 9.3295C19.6831 9.11853 19.9692 9 20.2676 9H22.5176C22.8159 9 23.1021 9.11853 23.3131 9.3295C23.5241 9.54048 23.6426 9.82663 23.6426 10.125C23.6426 10.4234 23.5241 10.7095 23.3131 10.9205C23.1021 11.1315 22.8159 11.25 22.5176 11.25H20.2676C19.9692 11.25 19.6831 11.1315 19.4721 10.9205C19.2611 10.7095 19.1426 10.4234 19.1426 10.125ZM20.2676 13.5C19.9692 13.5 19.6831 13.6185 19.4721 13.8295C19.2611 14.0405 19.1426 14.3266 19.1426 14.625C19.1426 14.9234 19.2611 15.2095 19.4721 15.4205C19.6831 15.6315 19.9692 15.75 20.2676 15.75H22.5176C22.8159 15.75 23.1021 15.6315 23.3131 15.4205C23.5241 15.2095 23.6426 14.9234 23.6426 14.625C23.6426 14.3266 23.5241 14.0405 23.3131 13.8295C23.1021 13.6185 22.8159 13.5 22.5176 13.5H20.2676ZM19.1426 19.125C19.1426 18.8266 19.2611 18.5405 19.4721 18.3295C19.6831 18.1185 19.9692 18 20.2676 18H22.5176C22.8159 18 23.1021 18.1185 23.3131 18.3295C23.5241 18.5405 23.6426 18.8266 23.6426 19.125C23.6426 19.4234 23.5241 19.7095 23.3131 19.9205C23.1021 20.1315 22.8159 20.25 22.5176 20.25H20.2676C19.9692 20.25 19.6831 20.1315 19.4721 19.9205C19.2611 19.7095 19.1426 19.4234 19.1426 19.125ZM13.5176 29.25V25.875C13.5176 25.5766 13.6361 25.2905 13.8471 25.0795C14.0581 24.8685 14.3442 24.75 14.6426 24.75H21.3926C21.6909 24.75 21.9771 24.8685 22.1881 25.0795C22.3991 25.2905 22.5176 25.5766 22.5176 25.875V29.25C22.5176 29.5484 22.3991 29.8345 22.1881 30.0455C21.9771 30.2565 21.6909 30.375 21.3926 30.375H14.6426C14.3442 30.375 14.0581 30.2565 13.8471 30.0455C13.6361 29.8345 13.5176 29.5484 13.5176 29.25Z" fill="#699BF7"/>
</svg>