<svg xmlns="http://www.w3.org/2000/svg" width="37" height="36" viewBox="0 0 37 36" fill="none">
  <g clip-path="url(#clip0_2511_7098)">
    <path d="M34.3301 28.6875H32.6426V13.9641C33.0165 13.8304 33.3314 13.5692 33.5317 13.2263C33.732 12.8834 33.805 12.4809 33.7378 12.0895C33.6707 11.6981 33.4676 11.3429 33.1644 11.0865C32.8611 10.8301 32.4772 10.6888 32.0801 10.6875H26.4551V7.21406C26.829 7.08042 27.1439 6.81917 27.3442 6.47629C27.5445 6.13341 27.6175 5.73086 27.5503 5.33947C27.4832 4.94808 27.2801 4.59292 26.9769 4.33649C26.6736 4.08005 26.2897 3.93877 25.8926 3.9375H5.64258C5.24546 3.93877 4.86152 4.08005 4.55829 4.33649C4.25507 4.59292 4.052 4.94808 3.98481 5.33947C3.91762 5.73086 3.99061 6.13341 4.19095 6.47629C4.39128 6.81917 4.70612 7.08042 5.08008 7.21406V28.6875H3.39258C2.94503 28.6875 2.5158 28.8653 2.19934 29.1818C1.88287 29.4982 1.70508 29.9274 1.70508 30.375C1.70508 30.8226 1.88287 31.2518 2.19934 31.5682C2.5158 31.8847 2.94503 32.0625 3.39258 32.0625H34.3301C34.7776 32.0625 35.2069 31.8847 35.5233 31.5682C35.8398 31.2518 36.0176 30.8226 36.0176 30.375C36.0176 29.9274 35.8398 29.4982 35.5233 29.1818C35.2069 28.8653 34.7776 28.6875 34.3301 28.6875ZM29.2676 14.0625V28.6875H26.4551V14.0625H29.2676ZM8.45508 7.3125H23.0801V28.6875H20.8301V22.5C20.8301 22.0524 20.6523 21.6232 20.3358 21.3068C20.0194 20.9903 19.5901 20.8125 19.1426 20.8125H12.3926C11.945 20.8125 11.5158 20.9903 11.1993 21.3068C10.8829 21.6232 10.7051 22.0524 10.7051 22.5V28.6875H8.45508V7.3125ZM17.4551 28.6875H14.0801V24.1875H17.4551V28.6875ZM10.1426 11.25C10.1426 10.8024 10.3204 10.3732 10.6368 10.0568C10.9533 9.74029 11.3825 9.5625 11.8301 9.5625H12.9551C13.4026 9.5625 13.8319 9.74029 14.1483 10.0568C14.4648 10.3732 14.6426 10.8024 14.6426 11.25C14.6426 11.6976 14.4648 12.1268 14.1483 12.4432C13.8319 12.7597 13.4026 12.9375 12.9551 12.9375H11.8301C11.3825 12.9375 10.9533 12.7597 10.6368 12.4432C10.3204 12.1268 10.1426 11.6976 10.1426 11.25ZM16.8926 11.25C16.8926 10.8024 17.0704 10.3732 17.3868 10.0568C17.7033 9.74029 18.1325 9.5625 18.5801 9.5625H19.7051C20.1526 9.5625 20.5819 9.74029 20.8983 10.0568C21.2148 10.3732 21.3926 10.8024 21.3926 11.25C21.3926 11.6976 21.2148 12.1268 20.8983 12.4432C20.5819 12.7597 20.1526 12.9375 19.7051 12.9375H18.5801C18.1325 12.9375 17.7033 12.7597 17.3868 12.4432C17.0704 12.1268 16.8926 11.6976 16.8926 11.25ZM10.1426 16.875C10.1426 16.4274 10.3204 15.9982 10.6368 15.6818C10.9533 15.3653 11.3825 15.1875 11.8301 15.1875H12.9551C13.4026 15.1875 13.8319 15.3653 14.1483 15.6818C14.4648 15.9982 14.6426 16.4274 14.6426 16.875C14.6426 17.3226 14.4648 17.7518 14.1483 18.0682C13.8319 18.3847 13.4026 18.5625 12.9551 18.5625H11.8301C11.3825 18.5625 10.9533 18.3847 10.6368 18.0682C10.3204 17.7518 10.1426 17.3226 10.1426 16.875ZM16.8926 16.875C16.8926 16.4274 17.0704 15.9982 17.3868 15.6818C17.7033 15.3653 18.1325 15.1875 18.5801 15.1875H19.7051C20.1526 15.1875 20.5819 15.3653 20.8983 15.6818C21.2148 15.9982 21.3926 16.4274 21.3926 16.875C21.3926 17.3226 21.2148 17.7518 20.8983 18.0682C20.5819 18.3847 20.1526 18.5625 19.7051 18.5625H18.5801C18.1325 18.5625 17.7033 18.3847 17.3868 18.0682C17.0704 17.7518 16.8926 17.3226 16.8926 16.875Z" fill="#699BF7"/>
  </g>
  <defs>
    <clipPath id="clip0_2511_7098">
      <rect width="36" height="36" fill="white" transform="translate(0.0175781)"/>
    </clipPath>
  </defs>
</svg>