<svg xmlns="http://www.w3.org/2000/svg" width="46" height="45" viewBox="0 0 46 45" fill="none">
  <path d="M0.0175781 45H22.5176V0H0.0175781V45ZM14.0801 5.625H19.7051V11.25H14.0801V5.625ZM14.0801 16.875H19.7051V22.5H14.0801V16.875ZM14.0801 28.125H19.7051V33.75H14.0801V28.125ZM2.83008 5.625H8.45508V11.25H2.83008V5.625ZM2.83008 16.875H8.45508V22.5H2.83008V16.875ZM2.83008 28.125H8.45508V33.75H2.83008V28.125ZM25.3301 14.0625H45.0176V16.875H25.3301V14.0625ZM25.3301 45H30.9551V33.75H39.3926V45H45.0176V19.6875H25.3301V45Z" fill="#699BF7"/>
</svg>