<svg xmlns="http://www.w3.org/2000/svg" viewBox="0 0 231.005 230.562" id="cinco-de-mayo"><g style="isolation:isolate"><circle cx="115.503" cy="115.281" r="108.338" fill="#5dbafb"></circle><path fill="#aaddf9" d="M223.398 125.043c.287-3.217.442-6.471.442-9.762a107.97 107.97 0 0 0-29.924-74.756 28.648 28.648 0 0 0-9.499 21.337c0 .769.04 1.528.099 2.282a46.327 46.327 0 0 0-41.93 45.854 74.94 74.94 0 0 0-25.886.615 74.94 74.94 0 0 0-25.886-.615 46.327 46.327 0 0 0-41.929-45.854c.06-.754.099-1.513.099-2.282a28.667 28.667 0 0 0-10.81-22.448 107.98 107.98 0 0 0-31.009 75.867c0 3.291.155 6.545.443 9.762h215.79Z"></path><path fill="#164ea3" d="M56.358 125.881v-40.6a6.723 6.723 0 0 1 6.723-6.722h2.255a5.207 5.207 0 0 0 5.207-5.207V62.44a4.39 4.39 0 0 0-4.39-4.39 4.497 4.497 0 0 0-4.497 4.497v4.647a2.82 2.82 0 0 1-2.82 2.82h-.17a2.82 2.82 0 0 1-2.82-2.82V54.028a5.378 5.378 0 0 0-5.378-5.378h-.091a4.957 4.957 0 0 0-4.957 4.957v29.14a2.82 2.82 0 0 1-2.82 2.82 2.82 2.82 0 0 1-2.82-2.82V65.142a2.82 2.82 0 0 0-2.82-2.819h-2a3.212 3.212 0 0 0-3.213 3.212v22.463a6.883 6.883 0 0 0 6.883 6.883h.59a6.883 6.883 0 0 1 6.883 6.883v24.117Z"></path><path fill="#ffde17" d="M115.503 223.618a108.343 108.343 0 0 0 107.887-98.49H66.683a7.129 7.129 0 0 0-9.655-4.614 11.787 11.787 0 0 0-21.677 4.575v.04H7.615a108.343 108.343 0 0 0 107.888 98.49Z"></path><ellipse cx="118.623" cy="174.048" fill="#ffc517" rx="72.027" ry="11.073"></ellipse><path fill="#164ea3" d="M120.728 141.959c-47.88 13.869-89.284 18.222-96.511 10.534l-.095.033s19.168 23.991 27.86 25.668l.004-.003c12.05 3.556 42.294-.122 76.345-9.985 34.075-9.87 61.617-22.939 69.88-32.387 6.308-6.036 9.588-35.4 9.705-36.47-2.156 10.374-39.418 28.773-87.188 42.61Z"></path><path fill="#5dbafb" d="M207.529 102.5c-.19 1.446-.447 3.29-.774 5.393l-1.113-.573-3.624 12.033-11.887-1.884-4.663 11.148-11.789-2.73-5.373 10.844-11.61-3.434-5.99 10.524-11.408-4.077-6.556 10.185-11.175-4.683-7.091 9.826-10.914-5.266-7.593 9.446-10.633-5.822-8.073 9.043-10.322-6.358-8.52 8.622-9.986-6.872-8.912 8.157-10.394-8.349-.13.659c-2.929-3.37-4.876-5.806-4.876-5.806l.094-.032c7.227 7.687 48.632 3.334 96.512-10.535 47.77-13.837 85.032-32.236 87.187-42.61-.026.237-.148 1.32-.364 2.975Z"></path><path fill="#fff" d="m206.755 107.892-1.113-.573-3.624 12.033-11.887-1.883-4.663 11.147-11.789-2.73-5.373 10.845-11.61-3.435-5.99 10.525-11.408-4.077-6.556 10.185-11.175-4.683-7.091 9.826-10.913-5.266-7.594 9.445-10.633-5.821-8.073 9.043-10.322-6.358-8.52 8.622-9.986-6.872-8.912 8.157-10.394-8.349-.13.659c3.098 3.562 7.293 8.168 11.464 12.06l8.313-7.61 10.117 6.964 8.636-8.738 10.46 6.443 8.183-9.166 10.779 5.901 7.697-9.574 11.063 5.338 7.19-9.963 11.333 4.75 6.65-10.33 11.573 4.136 6.079-10.68 11.786 3.487 5.459-11.017 11.99 2.775 4.749-11.354 11.09 1.757c1.375-5.198 2.426-10.997 3.145-15.619Z"></path><ellipse cx="115.558" cy="124.109" fill="#0a007b" rx="96.105" ry="18.584" transform="rotate(-16.154 115.558 124.109)"></ellipse><path fill="#226dc6" d="m146.722 97.254-12.5-24.131a31.028 31.028 0 0 0-36.184-15.53 31.028 31.028 0 0 0-22.379 30.819l.95 28.998 1.142 34.84c13.065-2.406 27.69-5.863 42.977-10.29 15.265-4.422 29.454-9.31 41.77-14.252Z"></path><path fill="#ff7a01" d="m77.363 140.415 4.176 2.022 7.251-9.756 11.057 5.065 7.083-9.89 11.143 4.893 6.944-9.995 11.213 4.736 6.808-10.092 11.28 4.57 2.902-4.45-6.061-11.7a361.066 361.066 0 0 1-74.24 21.016Z"></path><path fill="#fff" d="M76.918 126.834a361.066 361.066 0 0 0 74.24-21.017l-1.826-3.525a357.124 357.124 0 0 1-72.542 20.643Z"></path><path fill="#5dbafb" d="m144.487 122.148-6.833 10.131-11.254-4.754-6.97 10.032-11.186-4.91-7.112 9.931-11.11-5.089-7.292 9.812-5.224-2.53.245 7.479c13.065-2.406 27.69-5.863 42.977-10.291 15.265-4.422 29.454-9.31 41.77-14.252l-3.24-6.253-3.444 5.284Z"></path><path fill="#fbf65d" d="m143.038 117.398-6.808 10.092-11.213-4.736-6.944 9.995-11.143-4.893-7.083 9.89-11.057-5.065-7.252 9.756-4.175-2.022.143 4.356 5.224 2.53 7.293-9.812 11.109 5.089 7.113-9.931 11.185 4.911 6.97-10.033 11.254 4.754 6.833-10.131 11.328 4.59 3.444-5.284-2.039-3.936-2.901 4.451-11.281-4.571z"></path><path fill="#0a007b" style="mix-blend-mode:multiply" d="M120.728 141.959c48.101-13.933 85.541-32.49 87.221-42.822a35.882 35.882 0 0 0-.418-2.555 4.56 4.56 0 0 0-.862-1.081c-3.2 8.586-40.662 25.387-88.067 39.119s-88.046 19.553-95.34 14.007a4.167 4.167 0 0 0-.015 2.22c2.856 9.86 46.5 5.88 97.481-8.888Z" opacity=".44"></path></g></svg>