<svg xmlns="http://www.w3.org/2000/svg" width="37" height="36" viewBox="0 0 37 36" fill="none">
  <path fill-rule="evenodd" clip-rule="evenodd" d="M8.45508 4.5C8.00753 4.5 7.5783 4.67779 7.26184 4.99426C6.94537 5.31072 6.76758 5.73995 6.76758 6.1875C6.76758 6.63505 6.94537 7.06428 7.26184 7.38074C7.5783 7.69721 8.00753 7.875 8.45508 7.875H9.01758V28.125H8.45508C8.00753 28.125 7.5783 28.3028 7.26184 28.6193C6.94537 28.9357 6.76758 29.3649 6.76758 29.8125C6.76758 30.2601 6.94537 30.6893 7.26184 31.0057C7.5783 31.3222 8.00753 31.5 8.45508 31.5H13.5176C13.8159 31.5 14.1021 31.3815 14.3131 31.1705C14.5241 30.9595 14.6426 30.6734 14.6426 30.375V23.625C14.6426 23.3266 14.7611 23.0405 14.9721 22.8295C15.1831 22.6185 15.4692 22.5 15.7676 22.5H20.2676C20.5659 22.5 20.8521 22.6185 21.0631 22.8295C21.2741 23.0405 21.3926 23.3266 21.3926 23.625V30.375C21.3926 30.6734 21.5111 30.9595 21.7221 31.1705C21.9331 31.3815 22.2192 31.5 22.5176 31.5H27.5801C28.0276 31.5 28.4569 31.3222 28.7733 31.0057C29.0898 30.6893 29.2676 30.2601 29.2676 29.8125C29.2676 29.3649 29.0898 28.9357 28.7733 28.6193C28.4569 28.3028 28.0276 28.125 27.5801 28.125H27.0176V7.875H27.5801C28.0276 7.875 28.4569 7.69721 28.7733 7.38074C29.0898 7.06428 29.2676 6.63505 29.2676 6.1875C29.2676 5.73995 29.0898 5.31072 28.7733 4.99426C28.4569 4.67779 28.0276 4.5 27.5801 4.5H8.45508ZM14.6426 9C14.3442 9 14.0581 9.11853 13.8471 9.32951C13.6361 9.54048 13.5176 9.82663 13.5176 10.125V11.25C13.5176 11.5484 13.6361 11.8345 13.8471 12.0455C14.0581 12.2565 14.3442 12.375 14.6426 12.375H15.7676C16.0659 12.375 16.3521 12.2565 16.5631 12.0455C16.7741 11.8345 16.8926 11.5484 16.8926 11.25V10.125C16.8926 9.82663 16.7741 9.54048 16.5631 9.32951C16.3521 9.11853 16.0659 9 15.7676 9H14.6426ZM13.5176 15.75C13.5176 15.4516 13.6361 15.1655 13.8471 14.9545C14.0581 14.7435 14.3442 14.625 14.6426 14.625H15.7676C16.0659 14.625 16.3521 14.7435 16.5631 14.9545C16.7741 15.1655 16.8926 15.4516 16.8926 15.75V16.875C16.8926 17.1734 16.7741 17.4595 16.5631 17.6705C16.3521 17.8815 16.0659 18 15.7676 18H14.6426C14.3442 18 14.0581 17.8815 13.8471 17.6705C13.6361 17.4595 13.5176 17.1734 13.5176 16.875V15.75ZM20.2676 9C19.9692 9 19.6831 9.11853 19.4721 9.32951C19.2611 9.54048 19.1426 9.82663 19.1426 10.125V11.25C19.1426 11.5484 19.2611 11.8345 19.4721 12.0455C19.6831 12.2565 19.9692 12.375 20.2676 12.375H21.3926C21.6909 12.375 21.9771 12.2565 22.1881 12.0455C22.3991 11.8345 22.5176 11.5484 22.5176 11.25V10.125C22.5176 9.82663 22.3991 9.54048 22.1881 9.32951C21.9771 9.11853 21.6909 9 21.3926 9H20.2676ZM19.1426 15.75C19.1426 15.4516 19.2611 15.1655 19.4721 14.9545C19.6831 14.7435 19.9692 14.625 20.2676 14.625H21.3926C21.6909 14.625 21.9771 14.7435 22.1881 14.9545C22.3991 15.1655 22.5176 15.4516 22.5176 15.75V16.875C22.5176 17.1734 22.3991 17.4595 22.1881 17.6705C21.9771 17.8815 21.6909 18 21.3926 18H20.2676C19.9692 18 19.6831 17.8815 19.4721 17.6705C19.2611 17.4595 19.1426 17.1734 19.1426 16.875V15.75Z" fill="#699BF7"/>
</svg>