<svg xmlns="http://www.w3.org/2000/svg" width="37" height="36" viewBox="0 0 37 36" fill="none">
  <path d="M7.51758 4.5V31.5H16.5176V26.25H19.5176V31.5H28.5176V4.5H7.51758ZM10.5176 7.5H13.5176V10.5H10.5176V7.5ZM16.5176 7.5H19.5176V10.5H16.5176V7.5ZM22.5176 7.5H25.5176V10.5H22.5176V7.5ZM10.5176 13.5H13.5176V16.5H10.5176V13.5ZM16.5176 13.5H19.5176V16.5H16.5176V13.5ZM22.5176 13.5H25.5176V16.5H22.5176V13.5ZM10.5176 19.5H13.5176V22.5H10.5176V19.5ZM16.5176 19.5H19.5176V22.5H16.5176V19.5ZM22.5176 19.5H25.5176V22.5H22.5176V19.5ZM10.5176 25.5H13.5176V28.5H10.5176V25.5ZM22.5176 25.5H25.5176V28.5H22.5176V25.5Z" fill="#699BF7"/>
</svg>