<svg enable-background="new 0 0 32 32" height="32" viewBox="0 0 32 32" width="32" xmlns="http://www.w3.org/2000/svg"><g fill="#1c1c1c"><path d="m13 0h-11c-1.105 0-2 .895-2 2v28c0 1.105.895 2 2 2h11c1.105 0 2-.895 2-2v-28c0-1.105-.895-2-2-2zm1 29c0 1.105-.895 2-2 2h-9c-1.105 0-2-.895-2-2v-26c0-1.105.895-2 2-2h9c1.105 0 2 .895 2 2z"/><path d="m30 0h-11c-1.105 0-2 .895-2 2v11c0 1.105.895 2 2 2h11c1.105 0 2-.895 2-2v-11c0-1.105-.895-2-2-2zm1 12c0 1.105-.895 2-2 2h-9c-1.105 0-2-.895-2-2v-9c0-1.105.895-2 2-2h9c1.105 0 2 .895 2 2z"/><path d="m30 17h-11c-1.105 0-2 .895-2 2v11c0 1.105.895 2 2 2h11c1.105 0 2-.895 2-2v-11c0-1.105-.895-2-2-2zm1 12c0 1.105-.895 2-2 2h-9c-1.105 0-2-.895-2-2v-9c0-1.105.895-2 2-2h9c1.105 0 2 .895 2 2z"/></g></svg>