<svg xmlns="http://www.w3.org/2000/svg" width="17" height="17" viewBox="0 0 17 17" fill="none">
  <path d="M2.125 13.8125H4.25V15.9375H2.125V13.8125ZM7.4375 13.8125H9.5625V15.9375H7.4375V13.8125ZM12.75 13.8125H14.875V15.9375H12.75V13.8125ZM13.2812 8.5H9.03125V7.4375H7.96875V8.5H3.71875C3.43704 8.50028 3.16696 8.61231 2.96776 8.81151C2.76856 9.01071 2.65653 9.28079 2.65625 9.5625V12.75H3.71875V9.5625H7.96875V12.75H9.03125V9.5625H13.2812V12.75H14.3438V9.5625C14.3435 9.28079 14.2314 9.01071 14.0322 8.81151C13.833 8.61231 13.563 8.50028 13.2812 8.5ZM4.78125 1.0625V6.375H12.2188V1.0625H4.78125ZM5.84375 2.125H6.90625V5.3125H5.84375V2.125ZM11.1562 5.3125H7.96875V2.125H11.1562V5.3125Z" fill="white"/>
</svg>