<svg xmlns="http://www.w3.org/2000/svg" width="16" height="16" viewBox="0 0 16 16" fill="none">
  <path d="M7.5 11L6.795 11.705L8.085 13H2V4H1V13C1 13.5515 1.4485 14 2 14H8.085L6.795 15.295L7.5 16L10 13.5L7.5 11Z" fill="white"/>
  <path d="M5.5 8.5C5.77614 8.5 6 8.27614 6 8C6 7.72386 5.77614 7.5 5.5 7.5C5.22386 7.5 5 7.72386 5 8C5 8.27614 5.22386 8.5 5.5 8.5Z" fill="white"/>
  <path d="M12 10H4C3.4485 10 3 9.5515 3 9V7C3 6.4485 3.4485 6 4 6H12C12.5515 6 13 6.4485 13 7V9C13 9.5515 12.5515 10 12 10ZM4 7V9H12V7H4Z" fill="white"/>
  <path d="M14 2H7.915L9.205 0.705L8.5 0L6 2.5L8.5 5L9.205 4.295L7.915 3H14V12H15V3C15 2.449 14.5515 2 14 2Z" fill="white"/>
</svg>