<svg xmlns="http://www.w3.org/2000/svg" width="22" height="15" viewBox="0 0 22 15" fill="none">
  <g clip-path="url(#clip0_1988_2383)">
    <path d="M12.7795 11.3925H14.0574V12.6994H12.7795V11.3925ZM17.1967 11.3925H18.4745V12.6994H17.1967V11.3925ZM16.1248 6.75754V5.45129H14.3538V6.08754L15.0144 6.75817L16.1248 6.75754Z" fill="white"/>
    <path d="M20.504 13.82V11.0643H20.9104L21.2881 10.6825L16.8135 6.10621H16.258V6.89933H14.9564L14.1809 6.10621H12.0322L7.56253 10.6775L7.9402 11.0637H8.53848V13.8193H7.37064C5.62409 12.1106 5.15964 8.23496 5.32281 5.35183L5.35153 5.29308H5.36559C6.12948 5.29308 6.80659 5.67183 7.22825 6.25558L7.23253 6.26183C7.55031 6.70121 7.74159 7.25433 7.74159 7.85246C7.74159 8.26496 7.65114 8.65558 7.48859 9.00496L7.49531 8.98871C7.83636 8.89939 8.1534 8.73278 8.42298 8.50121L8.41931 8.50433C8.69999 8.25447 8.92495 7.94588 9.07898 7.59944C9.23301 7.253 9.31252 6.87678 9.31214 6.49621C9.31214 5.89933 9.12025 5.34871 8.79637 4.90496L8.80126 4.91183C8.52336 4.51549 8.13033 4.21885 7.67809 4.06411C7.22585 3.90938 6.73741 3.90443 6.28225 4.04996L6.29814 4.04558C6.46009 3.94246 6.64648 3.85121 6.84264 3.78183L6.8622 3.77558C7.12881 3.67487 7.41092 3.62385 7.69514 3.62496C8.35698 3.62496 8.95648 3.89558 9.39464 4.33371L9.39403 4.33308C9.45896 3.98253 9.43946 3.62108 9.3372 3.27996L9.34148 3.29558C9.24015 2.99159 9.07937 2.71188 8.86894 2.47349C8.65851 2.23509 8.40282 2.04301 8.11747 1.90893C7.83211 1.77485 7.52305 1.70158 7.20912 1.69359C6.89518 1.6856 6.58295 1.74306 6.29142 1.86246L6.3067 1.85683C6.15924 1.90882 6.01583 1.97212 5.8777 2.04621L5.89542 2.03746C5.85381 1.842 5.79216 1.65157 5.71148 1.46933L5.71881 1.48746C5.18103 0.254334 3.94781 -0.328166 2.96209 0.181209C2.69589 0.320391 2.46716 0.524273 2.29598 0.774959L2.29231 0.781209C2.63924 0.816025 2.97343 0.933204 3.26826 1.12341C3.5631 1.31363 3.81044 1.57161 3.99059 1.87683L3.99609 1.88683C3.76741 1.76975 3.52539 1.68221 3.27559 1.62621L3.25481 1.62246C1.73926 1.28933 0.297033 2.13121 0.0385328 3.50683C-0.030537 3.8842 -0.00765942 4.27316 0.105144 4.63933L0.100866 4.62308C0.439762 4.2296 0.878375 3.93953 1.36829 3.78491C1.8582 3.63028 2.38037 3.6171 2.87714 3.74683L2.85759 3.74246C3.10753 3.79621 3.32875 3.87371 3.53592 3.97558L3.5182 3.96746C3.02239 3.89991 2.51815 3.98515 2.06997 4.21227C1.62179 4.4394 1.25003 4.79808 1.00225 5.24246L0.995533 5.25496C0.73683 5.70068 0.601038 6.20975 0.602588 6.72808C0.602588 7.70808 1.07742 8.57433 1.80526 9.09933L1.81442 9.10558C2.12761 9.32065 2.48494 9.45921 2.85881 9.51058L2.87164 9.51183C2.60202 9.05493 2.46019 8.53112 2.46159 7.99746C2.46159 7.45183 2.60642 6.94058 2.85942 6.50246L2.85209 6.51621C3.04004 6.18161 3.29775 5.89346 3.6069 5.67223C3.91605 5.45101 4.26905 5.30214 4.64081 5.23621L4.65609 5.23371C3.79014 9.26683 3.55059 12.0768 4.26498 13.8187H2.18353V14.9937H21.8295V13.8187H20.504V13.82ZM15.6457 11.1281H20.0249V13.82H15.6457V11.1281ZM9.00842 10.5943L12.0334 7.50058L15.0584 10.5943V13.82H11.737V11.3925H10.0571V13.82H9.00476V10.5943H9.00842Z" fill="white"/>
  </g>
  <defs>
    <clipPath id="clip0_1988_2383">
      <rect width="22" height="15" fill="white"/>
    </clipPath>
  </defs>
</svg>