<svg xmlns="http://www.w3.org/2000/svg" width="21" height="21" viewBox="0 0 21 21" fill="none">
  <path d="M7.875 11.375H9.625V8.96875H11.375V11.375H13.125V7.21875L10.5 5.46875L7.875 7.21875V11.375ZM10.5 19.25C8.15208 17.2521 6.39858 15.3965 5.2395 13.6832C4.08042 11.97 3.50058 10.3839 3.5 8.925C3.5 6.7375 4.20379 4.99479 5.61138 3.69687C7.01896 2.39896 8.6485 1.75 10.5 1.75C12.3521 1.75 13.9819 2.39896 15.3895 3.69687C16.7971 4.99479 17.5006 6.7375 17.5 8.925C17.5 10.3833 16.9205 11.9694 15.7614 13.6832C14.6023 15.3971 12.8485 17.2527 10.5 19.25Z" fill="white"/>
</svg>