<svg xmlns="http://www.w3.org/2000/svg" width="16" height="16" viewBox="0 0 16 16" fill="none">
  <path d="M9.336 6.82955C9.27262 6.82912 9.21165 6.85378 9.16638 6.89815C9.12112 6.94251 9.09524 7.00298 9.0944 7.06635V8.83595C9.09524 8.89946 9.12123 8.96005 9.16667 9.00444C9.2121 9.04883 9.27328 9.07339 9.3368 9.07275H14.6672C14.7307 9.07339 14.7919 9.04883 14.8373 9.00444C14.8828 8.96005 14.9088 8.89946 14.9096 8.83595V7.06635C14.9088 7.00284 14.8828 6.94225 14.8373 6.89786C14.7919 6.85347 14.7307 6.82891 14.6672 6.82955H9.336ZM12.6048 1.20075C13.3424 1.23595 13.8728 1.38155 14.2088 1.69035C14.5408 1.99595 14.7112 2.43835 14.7448 3.02395V4.70155C14.7431 4.84442 14.6848 4.98078 14.5826 5.08067C14.4805 5.18057 14.3429 5.23585 14.2 5.23435C14.1292 5.2352 14.0589 5.22209 13.9932 5.19577C13.9274 5.16945 13.8675 5.13044 13.8168 5.08096C13.7662 5.03148 13.7258 4.97251 13.6979 4.90741C13.67 4.84231 13.6552 4.77236 13.6544 4.70155L13.6552 3.05435C13.6376 2.75035 13.5648 2.56155 13.4608 2.46555C13.36 2.37275 13.0528 2.28955 12.5784 2.26555H2.1176C1.688 2.28155 1.4088 2.36315 1.2736 2.47915C1.1696 2.56795 1.0912 2.81275 1.0904 3.23595L1.088 12.6519C1.128 13.0632 1.2184 13.3376 1.3344 13.4744C1.4224 13.5784 1.6952 13.6824 2.0968 13.7336H12.5896C13.0808 13.7432 13.3704 13.6696 13.468 13.5712C13.576 13.4616 13.6544 13.1736 13.6544 12.7024V11.0664C13.6544 10.7728 13.8984 10.5336 14.2 10.5336C14.5008 10.5336 14.7448 10.7728 14.7448 11.0664V12.7024C14.7448 13.4224 14.5976 13.9608 14.2528 14.3104C13.8976 14.6704 13.3328 14.8144 12.5784 14.7983L2.032 14.796C1.3144 14.7128 0.8 14.516 0.4936 14.1536C0.216 13.8256 0.0616 13.3576 0 12.7031V3.23515C0.0016 2.53435 0.1696 2.00715 0.5552 1.67755C0.9088 1.37355 1.4192 1.22555 2.0968 1.19995L12.6048 1.20075ZM14.6672 5.76395C15.4032 5.76395 16 6.34715 16 7.06635V8.83595C16 9.55515 15.4032 10.1384 14.6672 10.1384H9.3368C8.6008 10.1384 8.004 9.55435 8.004 8.83595V7.06635C8.004 6.34715 8.6008 5.76395 9.3368 5.76395H14.6672ZM10.6696 7.31595C10.3016 7.31595 10.0032 7.60395 10.0032 7.95835C10.0032 8.31355 10.3016 8.60075 10.6696 8.60075C11.0376 8.60075 11.336 8.31275 11.336 7.95835C11.336 7.60315 11.0376 7.31515 10.6696 7.31515" fill="white"/>
</svg>