<svg xmlns="http://www.w3.org/2000/svg" width="18" height="18" viewBox="0 0 18 18" fill="none">
  <path fill-rule="evenodd" clip-rule="evenodd" d="M5.32427 0.9375H12.675C13.4378 0.9375 13.9628 0.9375 14.4045 1.0905C14.8174 1.23631 15.1911 1.47538 15.4965 1.78913C15.8019 2.10288 16.0309 2.48285 16.1655 2.8995C16.3125 3.34725 16.3118 3.87975 16.3118 4.6695V15.2805C16.3118 16.38 15.0165 17.034 14.1638 16.2533C14.1364 16.2271 14.1 16.2125 14.0621 16.2125C14.0243 16.2125 13.9879 16.2271 13.9605 16.2533L13.5975 16.5848C12.9015 17.2222 11.847 17.2222 11.151 16.5848C11.025 16.4671 10.8591 16.4017 10.6868 16.4017C10.5144 16.4017 10.3485 16.4671 10.2225 16.5848C9.52652 17.2222 8.47202 17.2222 7.77602 16.5848C7.65004 16.4671 7.48412 16.4017 7.31177 16.4017C7.13942 16.4017 6.97349 16.4671 6.84752 16.5848C6.15152 17.2222 5.09702 17.2222 4.40102 16.5848L4.03877 16.2533C4.01137 16.2269 3.97481 16.2121 3.93677 16.2121C3.89872 16.2121 3.86216 16.2269 3.83477 16.2533C2.98202 17.0332 1.68677 16.38 1.68677 15.2805V4.67025C1.68677 3.87975 1.68677 3.34725 1.83302 2.8995C1.96762 2.48283 2.19654 2.10283 2.50198 1.78907C2.80741 1.47531 3.18111 1.23626 3.59402 1.0905C4.03652 0.93675 4.56152 0.9375 5.32427 0.9375ZM5.43302 2.0625C4.51727 2.0625 4.20152 2.07 3.96302 2.15325C3.71382 2.24235 3.48851 2.3877 3.30459 2.57799C3.12067 2.76829 2.98308 2.99841 2.90252 3.2505C2.81927 3.504 2.81252 3.8385 2.81252 4.7775V15.2805C2.81252 15.3705 2.85677 15.4245 2.91302 15.4508C2.93868 15.463 2.96729 15.4677 2.99552 15.4642C3.02596 15.4594 3.05406 15.4449 3.07577 15.423C3.31045 15.207 3.61778 15.087 3.93677 15.087C4.25575 15.087 4.56308 15.207 4.79777 15.423L5.16002 15.7545C5.28599 15.8721 5.45192 15.9375 5.62427 15.9375C5.79662 15.9375 5.96254 15.8721 6.08852 15.7545C6.42185 15.4474 6.85852 15.2769 7.31177 15.2769C7.76502 15.2769 8.20169 15.4474 8.53502 15.7545C8.66099 15.8721 8.82692 15.9375 8.99927 15.9375C9.17162 15.9375 9.33754 15.8721 9.46352 15.7545C9.79685 15.4474 10.2335 15.2769 10.6868 15.2769C11.14 15.2769 11.5767 15.4474 11.91 15.7545C12.036 15.8721 12.2019 15.9375 12.3743 15.9375C12.5466 15.9375 12.7125 15.8721 12.8385 15.7545L13.2008 15.423C13.4355 15.207 13.7428 15.087 14.0618 15.087C14.3808 15.087 14.6881 15.207 14.9228 15.423C14.955 15.453 14.9828 15.462 15.0038 15.4642C15.0317 15.4675 15.0601 15.4628 15.0855 15.4508C15.1418 15.4245 15.1868 15.3698 15.1868 15.2805V4.7775C15.1868 3.8385 15.1793 3.504 15.0968 3.24975C15.0159 2.99764 14.8781 2.76756 14.6939 2.57739C14.5097 2.38722 14.2842 2.24208 14.0348 2.15325C13.797 2.07075 13.4813 2.06325 12.5655 2.06325L5.43302 2.0625ZM4.68752 5.625C4.68752 5.47582 4.74678 5.33274 4.85227 5.22725C4.95776 5.12176 5.10083 5.0625 5.25002 5.0625H5.62502C5.7742 5.0625 5.91728 5.12176 6.02276 5.22725C6.12825 5.33274 6.18752 5.47582 6.18752 5.625C6.18752 5.77418 6.12825 5.91726 6.02276 6.02275C5.91728 6.12824 5.7742 6.1875 5.62502 6.1875H5.25002C5.10083 6.1875 4.95776 6.12824 4.85227 6.02275C4.74678 5.91726 4.68752 5.77418 4.68752 5.625ZM7.31252 5.625C7.31252 5.47582 7.37178 5.33274 7.47727 5.22725C7.58276 5.12176 7.72583 5.0625 7.87502 5.0625H12.75C12.8992 5.0625 13.0423 5.12176 13.1478 5.22725C13.2533 5.33274 13.3125 5.47582 13.3125 5.625C13.3125 5.77418 13.2533 5.91726 13.1478 6.02275C13.0423 6.12824 12.8992 6.1875 12.75 6.1875H7.87502C7.72583 6.1875 7.58276 6.12824 7.47727 6.02275C7.37178 5.91726 7.31252 5.77418 7.31252 5.625ZM4.68752 8.25C4.68752 8.10082 4.74678 7.95774 4.85227 7.85225C4.95776 7.74676 5.10083 7.6875 5.25002 7.6875H5.62502C5.7742 7.6875 5.91728 7.74676 6.02276 7.85225C6.12825 7.95774 6.18752 8.10082 6.18752 8.25C6.18752 8.39918 6.12825 8.54226 6.02276 8.64775C5.91728 8.75324 5.7742 8.8125 5.62502 8.8125H5.25002C5.10083 8.8125 4.95776 8.75324 4.85227 8.64775C4.74678 8.54226 4.68752 8.39918 4.68752 8.25ZM7.31252 8.25C7.31252 8.10082 7.37178 7.95774 7.47727 7.85225C7.58276 7.74676 7.72583 7.6875 7.87502 7.6875H12.75C12.8992 7.6875 13.0423 7.74676 13.1478 7.85225C13.2533 7.95774 13.3125 8.10082 13.3125 8.25C13.3125 8.39918 13.2533 8.54226 13.1478 8.64775C13.0423 8.75324 12.8992 8.8125 12.75 8.8125H7.87502C7.72583 8.8125 7.58276 8.75324 7.47727 8.64775C7.37178 8.54226 7.31252 8.39918 7.31252 8.25ZM4.68752 10.875C4.68752 10.7258 4.74678 10.5827 4.85227 10.4773C4.95776 10.3718 5.10083 10.3125 5.25002 10.3125H5.62502C5.7742 10.3125 5.91728 10.3718 6.02276 10.4773C6.12825 10.5827 6.18752 10.7258 6.18752 10.875C6.18752 11.0242 6.12825 11.1673 6.02276 11.2727C5.91728 11.3782 5.7742 11.4375 5.62502 11.4375H5.25002C5.10083 11.4375 4.95776 11.3782 4.85227 11.2727C4.74678 11.1673 4.68752 11.0242 4.68752 10.875ZM7.31252 10.875C7.31252 10.7258 7.37178 10.5827 7.47727 10.4773C7.58276 10.3718 7.72583 10.3125 7.87502 10.3125H12.75C12.8992 10.3125 13.0423 10.3718 13.1478 10.4773C13.2533 10.5827 13.3125 10.7258 13.3125 10.875C13.3125 11.0242 13.2533 11.1673 13.1478 11.2727C13.0423 11.3782 12.8992 11.4375 12.75 11.4375H7.87502C7.72583 11.4375 7.58276 11.3782 7.47727 11.2727C7.37178 11.1673 7.31252 11.0242 7.31252 10.875Z" fill="white"/>
</svg>