<svg xmlns="http://www.w3.org/2000/svg" width="21" height="21" viewBox="0 0 21 21" fill="none">
  <path d="M5.25 3.5V7H15.75V3.5H17.5061C17.9856 3.5 18.375 3.88937 18.375 4.36888V18.3811C18.3748 18.6115 18.2832 18.8324 18.1203 18.9953C17.9574 19.1582 17.7365 19.2498 17.5061 19.25H3.49388C3.26344 19.25 3.04243 19.1585 2.87949 18.9955C2.71654 18.8326 2.625 18.6116 2.625 18.3811V4.36888C2.625 3.88937 3.01438 3.5 3.49388 3.5H5.25ZM7.875 14.875H6.125V16.625H7.875V14.875ZM7.875 12.25H6.125V14H7.875V12.25ZM7.875 9.625H6.125V11.375H7.875V9.625ZM14 1.75V5.25H7V1.75H14Z" fill="white"/>
</svg>