<svg width="15" height="16" viewBox="0 0 15 16" fill="none" xmlns="http://www.w3.org/2000/svg">
<g id="carbon:global-loan-and-trial" clip-path="url(#clip0_1012_3188)">
<path id="Vector" d="M7.03125 11.0752L6.37031 11.7361L7.57969 12.9502H1.875V4.5127H0.9375V12.9502C0.9375 13.4672 1.35797 13.8877 1.875 13.8877H7.57969L6.37031 15.1018L7.03125 15.7627L9.375 13.4189L7.03125 11.0752Z" fill="white"/>
<path id="Vector_2" d="M5.15625 8.73145C5.41513 8.73145 5.625 8.52158 5.625 8.2627C5.625 8.00381 5.41513 7.79395 5.15625 7.79395C4.89737 7.79395 4.6875 8.00381 4.6875 8.2627C4.6875 8.52158 4.89737 8.73145 5.15625 8.73145Z" fill="white"/>
<path id="Vector_3" d="M11.25 10.1377H3.75C3.23297 10.1377 2.8125 9.71723 2.8125 9.2002V7.3252C2.8125 6.80816 3.23297 6.3877 3.75 6.3877H11.25C11.767 6.3877 12.1875 6.80816 12.1875 7.3252V9.2002C12.1875 9.71723 11.767 10.1377 11.25 10.1377ZM3.75 7.3252V9.2002H11.25V7.3252H3.75Z" fill="white"/>
<path id="Vector_4" d="M13.125 2.6377H7.42031L8.62969 1.42363L7.96875 0.762695L5.625 3.10645L7.96875 5.4502L8.62969 4.78926L7.42031 3.5752H13.125V12.0127H14.0625V3.5752C14.0625 3.05863 13.642 2.6377 13.125 2.6377Z" fill="white"/>
</g>
<defs>
<clipPath id="clip0_1012_3188">
<rect width="15" height="15" fill="white" transform="translate(0 0.762695)"/>
</clipPath>
</defs>
</svg>
