<svg width="18" height="17" viewBox="0 0 18 17" fill="none" xmlns="http://www.w3.org/2000/svg">
<g id="ion:home">
<path id="Vector" d="M8.80443 3.36274C8.85677 3.31546 8.92641 3.28906 8.99885 3.28906C9.07128 3.28906 9.14092 3.31546 9.19326 3.36274L15.6655 9.20218C15.693 9.22701 15.7149 9.25685 15.7298 9.28989C15.7447 9.32294 15.7524 9.3585 15.7524 9.39442L15.7534 14.8749C15.7534 15.1567 15.6349 15.427 15.4239 15.6262C15.2129 15.8255 14.9268 15.9374 14.6284 15.9374H11.2499C11.1007 15.9374 10.9576 15.8815 10.8522 15.7818C10.7467 15.6822 10.6874 15.5471 10.6874 15.4062V10.8906C10.6874 10.8201 10.6578 10.7525 10.605 10.7027C10.5523 10.6529 10.4807 10.6249 10.4062 10.6249H7.59365C7.51906 10.6249 7.44752 10.6529 7.39478 10.7027C7.34203 10.7525 7.3124 10.8201 7.3124 10.8906V15.4062C7.3124 15.5471 7.25314 15.6822 7.14765 15.7818C7.04216 15.8815 6.89909 15.9374 6.7499 15.9374H3.37279C3.07442 15.9374 2.78828 15.8255 2.5773 15.6262C2.36632 15.427 2.24779 15.1567 2.24779 14.8749V9.39442C2.24775 9.3585 2.25542 9.32294 2.27035 9.28989C2.28527 9.25685 2.30714 9.22701 2.33463 9.20218L8.80443 3.36274Z" fill="white"/>
<path id="Vector_2" d="M0.741432 8.10654L3.37112 5.73053V2.125C3.37112 1.9841 3.43038 1.84898 3.53587 1.74935C3.64136 1.64972 3.78444 1.59375 3.93362 1.59375H5.62112C5.7703 1.59375 5.91338 1.64972 6.01887 1.74935C6.12436 1.84898 6.18362 1.9841 6.18362 2.125V3.1875L8.21987 1.34871C8.41042 1.16676 8.69378 1.0625 8.99999 1.0625C9.30514 1.0625 9.5878 1.16676 9.77835 1.34904L17.2561 8.10588C17.4748 8.3051 17.5022 8.63281 17.3032 8.84863C17.2532 8.90311 17.192 8.94741 17.1234 8.97885C17.0547 9.01028 16.98 9.02819 16.9037 9.03148C16.8275 9.03478 16.7513 9.02338 16.6799 8.998C16.6085 8.97261 16.5433 8.93377 16.4883 8.88383L9.19335 2.30031C9.141 2.25302 9.07136 2.22663 8.99893 2.22663C8.9265 2.22663 8.85686 2.25302 8.80452 2.30031L1.50889 8.88383C1.40142 8.98116 1.25748 9.03428 1.10861 9.03154C0.959736 9.02881 0.818087 8.97043 0.714714 8.86922C0.498854 8.65805 0.516785 8.30941 0.741432 8.10654Z" fill="white"/>
</g>
</svg>
