<svg width="15" height="15" viewBox="0 0 15 15" fill="none" xmlns="http://www.w3.org/2000/svg">
<g id="streamline:decent-work-and-economic-growth-solid" clip-path="url(#clip0_2_1020)">
<path id="Vector" fill-rule="evenodd" clip-rule="evenodd" d="M11.0635 0.299989C11.1195 0.210078 11.2009 0.138782 11.2974 0.0951104C11.3939 0.0514392 11.5012 0.0373528 11.6057 0.0546314L14.3603 0.514274C14.5004 0.537636 14.6254 0.615648 14.708 0.731168C14.7906 0.846687 14.8239 0.990263 14.8007 1.13035L14.3421 3.88606C14.3246 3.99052 14.2765 4.08745 14.204 4.1646C14.1314 4.24175 14.0376 4.29565 13.9344 4.3195C13.8312 4.34335 13.7232 4.33608 13.6242 4.2986C13.5251 4.26111 13.4394 4.19511 13.3778 4.10892L12.6343 3.06963L8.80497 5.51677C8.64168 5.62127 8.44611 5.6632 8.25432 5.63485C8.06254 5.6065 7.88748 5.50976 7.7614 5.36249L5.62604 2.86606L1.63283 4.91785C1.4433 5.01531 1.2228 5.03349 1.01986 4.96839C0.816922 4.90329 0.648155 4.76024 0.550688 4.5707C0.453221 4.38117 0.435038 4.16068 0.50014 3.95774C0.565242 3.75479 0.708295 3.58603 0.89783 3.48856L5.45676 1.14535C5.61771 1.06266 5.80186 1.03672 5.97939 1.07172C6.15693 1.10672 6.31745 1.20061 6.43497 1.3382L8.52854 3.78642L11.7 1.75927L11.0818 0.894631C11.0203 0.80841 10.9858 0.705907 10.9825 0.600071C10.9793 0.494234 11.0075 0.38981 11.0635 0.299989ZM4.04997 5.5607L0.940688 7.33927C0.817855 7.40944 0.715721 7.51078 0.644608 7.63307C0.573494 7.75535 0.535922 7.89424 0.535688 8.0357V14.1964C0.535688 14.64 0.895688 15 1.33926 15H4.04997V5.5607ZM5.38926 15H9.31926V7.70142L7.55247 8.58427L5.78676 5.49427C5.69759 5.33713 5.55787 5.21478 5.39033 5.14713L5.38926 15ZM13.6607 15H10.6585V7.03177L13.3018 5.70963C13.4243 5.64847 13.5604 5.61963 13.6972 5.62584C13.834 5.63206 13.9669 5.67313 14.0833 5.74515C14.1998 5.81717 14.2959 5.91776 14.3626 6.03737C14.4293 6.15697 14.4643 6.29163 14.4643 6.42856V14.1964C14.4643 14.4095 14.3796 14.6139 14.2289 14.7646C14.0782 14.9153 13.8738 15 13.6607 15Z" fill="white"/>
</g>
<defs>
<clipPath id="clip0_2_1020">
<rect width="15" height="15" fill="white"/>
</clipPath>
</defs>
</svg>
