<svg width="16" height="16" viewBox="0 0 16 16" fill="none" xmlns="http://www.w3.org/2000/svg">
<g id="material-symbols:inventory-rounded">
<path id="Vector" d="M10.3333 11.4167L13.6333 8.11666C13.7556 7.99443 13.9111 7.93332 14.1 7.93332C14.2889 7.93332 14.4444 7.99443 14.5667 8.11666C14.6889 8.23888 14.75 8.39443 14.75 8.58332C14.75 8.77221 14.6889 8.92777 14.5667 9.04999L10.8 12.8167C10.6667 12.95 10.5111 13.0167 10.3333 13.0167C10.1556 13.0167 10 12.95 9.86667 12.8167L7.96667 10.9167C7.84444 10.7944 7.78333 10.6389 7.78333 10.45C7.78333 10.2611 7.84444 10.1055 7.96667 9.98332C8.08889 9.8611 8.24444 9.79999 8.43333 9.79999C8.62222 9.79999 8.77778 9.8611 8.9 9.98332L10.3333 11.4167ZM3.33333 14C2.96667 14 2.65289 13.8695 2.392 13.6087C2.13111 13.3478 2.00044 13.0338 2 12.6667V3.33332C2 2.96666 2.13067 2.65288 2.392 2.39199C2.65333 2.1311 2.96711 2.00043 3.33333 1.99999H6.11667C6.23889 1.6111 6.47778 1.29177 6.83333 1.04199C7.18889 0.792212 7.57778 0.667101 8 0.666656C8.44444 0.666656 8.84178 0.791768 9.192 1.04199C9.54222 1.29221 9.77822 1.61155 9.9 1.99999H12.6667C13.0333 1.99999 13.3473 2.13066 13.6087 2.39199C13.87 2.65332 14.0004 2.9671 14 3.33332V5.99999C14 6.18888 13.936 6.34732 13.808 6.47532C13.68 6.60332 13.5218 6.6671 13.3333 6.66666C13.1444 6.66666 12.9862 6.60266 12.8587 6.47466C12.7311 6.34666 12.6671 6.18843 12.6667 5.99999V3.33332H11.3333V4.66666C11.3333 4.85555 11.2693 5.01399 11.1413 5.14199C11.0133 5.26999 10.8551 5.33377 10.6667 5.33332H5.33333C5.14444 5.33332 4.98622 5.26932 4.85867 5.14132C4.73111 5.01332 4.66711 4.8551 4.66667 4.66666V3.33332H3.33333V12.6667H6.66667C6.85556 12.6667 7.014 12.7307 7.142 12.8587C7.27 12.9867 7.33378 13.1449 7.33333 13.3333C7.33333 13.5222 7.26933 13.6807 7.14133 13.8087C7.01333 13.9367 6.85511 14.0004 6.66667 14H3.33333ZM8 3.33332C8.18889 3.33332 8.34733 3.26932 8.47533 3.14132C8.60333 3.01332 8.66711 2.8551 8.66667 2.66666C8.66667 2.47777 8.60267 2.31955 8.47467 2.19199C8.34667 2.06443 8.18844 2.00043 8 1.99999C7.81111 1.99999 7.65289 2.06399 7.52533 2.19199C7.39778 2.31999 7.33378 2.47821 7.33333 2.66666C7.33333 2.85555 7.39733 3.01399 7.52533 3.14199C7.65333 3.26999 7.81156 3.33377 8 3.33332Z" fill="white"/>
</g>
</svg>
