<svg width="18" height="18" viewBox="0 0 18 18" fill="none" xmlns="http://www.w3.org/2000/svg">
<g id="arcticons:day-to-day-expenses" clip-path="url(#clip0_2_1042)">
<path id="Vector" d="M3.51974 3.61801C4.23305 2.88742 5.08547 2.30712 6.02671 1.91134C6.96795 1.51556 7.97893 1.31233 8.99999 1.31364C13.2352 1.31364 16.6687 4.74676 16.6687 8.98201C16.6687 13.2173 13.2352 16.6508 8.99999 16.6508C4.76474 16.6508 1.33124 13.2173 1.33124 8.98201C1.33124 7.50226 1.75086 6.12039 2.47686 4.94851" stroke="white" stroke-linecap="round" stroke-linejoin="round"/>
<path id="Vector_2" d="M11.5571 8.93401C11.5571 9.15216 11.4704 9.36139 11.3162 9.51565C11.1619 9.66991 10.9527 9.75657 10.7345 9.75657C10.5164 9.75657 10.3072 9.66991 10.1529 9.51565C9.99865 9.36139 9.91199 9.15216 9.91199 8.93401C9.91199 8.47988 10.2802 8.11163 10.7344 8.11163C11.1885 8.11163 11.5571 8.47988 11.5571 8.93401Z" stroke="white" stroke-linecap="round" stroke-linejoin="round"/>
<path id="Vector_3" d="M9.24336 6.38999H13.2596C13.536 6.3894 13.8014 6.49861 13.9973 6.69361C14.1932 6.88861 14.3037 7.15344 14.3044 7.42987V10.4336C14.3049 10.71 14.1956 10.9753 14.0005 11.1712C13.8054 11.367 13.5405 11.4774 13.2641 11.478H9.24336C8.96694 11.4786 8.70159 11.3694 8.50567 11.1744C8.30976 10.9794 8.19931 10.7145 8.19861 10.4381V7.43437C8.19832 7.29747 8.22499 7.16184 8.2771 7.03525C8.32922 6.90865 8.40576 6.79356 8.50236 6.69655C8.59896 6.59954 8.71371 6.5225 8.84008 6.46983C8.96645 6.41717 9.10196 6.38991 9.23886 6.38962L9.24336 6.38999Z" stroke="white" stroke-linecap="round" stroke-linejoin="round"/>
<path id="Vector_4" d="M13.4438 11.4607V12.492C13.4441 12.6289 13.4175 12.7645 13.3654 12.8911C13.3133 13.0178 13.2368 13.1329 13.1403 13.2299C13.0437 13.327 12.929 13.4041 12.8026 13.4568C12.6763 13.5095 12.5408 13.5368 12.4039 13.5371H5.40376C5.26686 13.5374 5.13124 13.5107 5.00464 13.4586C4.87805 13.4065 4.76296 13.33 4.66594 13.2334C4.56893 13.1368 4.49189 13.022 4.43923 12.8956C4.38657 12.7693 4.35931 12.6338 4.35901 12.4969V5.472C4.35872 5.33509 4.38539 5.19947 4.43751 5.07288C4.48962 4.94628 4.56617 4.83119 4.66276 4.73418C4.75936 4.63717 4.87412 4.56013 5.00049 4.50746C5.12685 4.4548 5.26236 4.42754 5.39926 4.42725H12.3986C12.6751 4.42675 12.9404 4.53606 13.1362 4.73113C13.3321 4.9262 13.4424 5.19107 13.443 5.4675V6.4065M0.543762 6.21112L2.56689 4.72912L2.83876 7.22212" stroke="white" stroke-linecap="round" stroke-linejoin="round"/>
</g>
<defs>
<clipPath id="clip0_2_1042">
<rect width="18" height="18" fill="white"/>
</clipPath>
</defs>
</svg>
